<svg aria-hidden="true" style="position: absolute; width: 0; height: 0; overflow: hidden;" version="1.1" xmlns="http://www.w3.org/2000/svg" xmlns:xlink="http://www.w3.org/1999/xlink">
<defs>
<symbol id="icon-glass" viewBox="0 0 32 32">
<title>glass</title>
<path d="M23.089 19.977c0.397 0.397 0.644 0.948 0.644 1.556 0 1.215-0.985 2.2-2.2 2.2-0.608 0-1.157-0.247-1.556-0.645v0l-6.448-6.447c-1.309 0.773-2.832 1.225-4.463 1.225-4.86 0-8.8-3.94-8.8-8.8s3.94-8.8 8.8-8.8c4.86 0 8.8 3.94 8.8 8.8 0 1.631-0.452 3.153-1.225 4.463l6.448 6.448zM9.067 2.465c-3.645 0-6.6 2.956-6.6 6.601s2.955 6.6 6.6 6.6c3.645 0 6.6-2.955 6.6-6.6s-2.955-6.601-6.6-6.601z"></path>
</symbol>
<symbol id="icon-shopping" viewBox="0 0 38 32">
<title>shopping</title>
<path d="M28.362 5.861h0.002l-3.96 8.8c-0.195 0.434-0.618 0.742-1.115 0.776v0l-11.405 0.76 0.659 1.882h12.418c1.458 0 2.64 1.182 2.64 2.642 0 1.458-1.182 2.64-2.64 2.64s-2.64-1.182-2.64-2.64h-12.32c0 1.458-1.182 2.64-2.64 2.64s-2.64-1.182-2.64-2.64c0-1.459 1.182-2.642 2.64-2.642h2.386l-5.082-14.518h-3.024c-0.73 0-1.32-0.592-1.32-1.32 0-0.73 0.59-1.32 1.32-1.32h3.96c0.576 0 1.061 0.371 1.242 0.885l0.005-0.002 0.768 2.197h19.546c0.73 0 1.32 0.59 1.32 1.32 0 0.192-0.043 0.374-0.118 0.541zM8.539 6.64l2.44 6.971 11.342-0.757 2.797-6.214h-16.579z"></path>
</symbol>
</defs>
</svg>
