<svg aria-hidden="true" style="position: absolute; width: 0; height: 0; overflow: hidden;" version="1.1" xmlns="http://www.w3.org/2000/svg" xmlns:xlink="http://www.w3.org/1999/xlink">
<defs>

<symbol id="icon-ALARM" viewBox="0 0 32 32">
<path fill="#95e1d3" style="fill: var(--color1, #95e1d3)" d="M29.873 10.826c-1.49-3.479-4.279-6.268-7.757-7.758 0.941-0.74 2.125-1.186 3.415-1.186 3.053 0 5.529 2.475 5.529 5.529 0 1.29-0.445 2.474-1.186 3.415zM29.647 16.941c0 3.626-1.423 6.911-3.729 9.355 0 0 1.909 1.909 1.909 1.909 0.253 0.253 0.409 0.602 0.409 0.987 0 0.771-0.625 1.396-1.396 1.396-0.386 0-0.734-0.156-0.987-0.409 0 0-2.050-2.050-2.050-2.050-2.212 1.546-4.899 2.459-7.802 2.459-2.898 0-5.579-0.909-7.789-2.45 0 0-2.036 2.036-2.036 2.036-0.256 0.255-0.608 0.414-0.998 0.414-0.78 0-1.412-0.632-1.412-1.412 0-0.389 0.158-0.743 0.413-0.998 0 0 1.894-1.893 1.894-1.893-2.3-2.443-3.719-5.724-3.719-9.344 0-7.537 6.11-13.647 13.647-13.647s13.647 6.11 13.647 13.647zM16 6.117c-5.978 0-10.824 4.846-10.824 10.824s4.846 10.824 10.824 10.824c5.978 0 10.823-4.846 10.823-10.824s-4.846-10.824-10.823-10.824zM21.647 18.353c0 0-5.647 0-5.647 0-0.78 0-1.412-0.632-1.412-1.412 0 0 0-7.53 0-7.53 0-0.779 0.632-1.411 1.412-1.411s1.412 0.632 1.412 1.411c0 0 0 6.118 0 6.118s4.235 0 4.235 0c0.78 0 1.412 0.632 1.412 1.412s-0.632 1.412-1.412 1.412zM2.153 11.017c-0.757-0.96-1.212-2.17-1.212-3.488 0-3.119 2.528-5.647 5.647-5.647 1.318 0 2.527 0.455 3.488 1.211-3.553 1.522-6.401 4.371-7.923 7.923z"></path>
</symbol>

<symbol id="icon-BOOK-2" viewBox="0 0 33 32">
<path fill="#95e1d3" style="fill: var(--color1, #95e1d3)" d="M31.12 25.308c0 0-13.62 5.636-13.62 5.636-0.171 0.074-0.36 0.115-0.559 0.115s-0.387-0.041-0.559-0.115c0 0-13.62-5.636-13.62-5.636-0.516-0.21-0.88-0.716-0.88-1.308 0 0 0-21.647 0-21.647 0-0.78 0.632-1.411 1.412-1.411 0.191 0 0.373 0.038 0.54 0.107 0 0 0 0 0 0s0.002 0.001 0.002 0.001c0.004 0.001 0.008 0.003 0.013 0.005 0 0 13.092 5.417 13.092 5.417s13.092-5.417 13.092-5.417c0.004-0.002 0.008-0.004 0.013-0.005 0 0 0.002-0.001 0.002-0.001s0 0 0 0c0.166-0.069 0.348-0.107 0.54-0.107 0.78 0 1.412 0.632 1.412 1.411 0 0 0 21.647 0 21.647 0 0.591-0.364 1.098-0.88 1.308zM15.529 8.944c0 0-10.824-4.479-10.824-4.479s0 18.591 0 18.591c0 0 10.824 4.479 10.824 4.479s0-18.591 0-18.591zM29.176 4.465c0 0-10.824 4.479-10.824 4.479s0 18.591 0 18.591c0 0 10.824-4.479 10.824-4.479s0-18.591 0-18.591zM20.592 10.95c0 0 5.177-2.353 5.177-2.353s0 0 0 0c0.178-0.081 0.376-0.127 0.584-0.127 0.78 0 1.412 0.632 1.412 1.412 0 0.571-0.34 1.063-0.828 1.285 0 0 0 0 0 0s-5.177 2.353-5.177 2.353c0 0 0 0 0 0-0.178 0.081-0.376 0.127-0.584 0.127-0.78 0-1.412-0.632-1.412-1.412 0-0.571 0.34-1.063 0.828-1.285zM20.592 16.127c0 0 0 0 0 0s5.177-2.353 5.177-2.353c0 0 0 0 0 0 0.178-0.081 0.376-0.126 0.584-0.126 0.78 0 1.412 0.632 1.412 1.411 0 0.572-0.34 1.063-0.828 1.285 0 0-5.177 2.353-5.177 2.353s0-0.001 0-0.001c-0.178 0.081-0.376 0.127-0.584 0.127-0.78 0-1.412-0.632-1.412-1.411 0-0.572 0.34-1.063 0.828-1.285zM20.592 21.303c0 0 0 0 0 0s5.177-2.353 5.177-2.353c0 0 0 0 0 0 0.178-0.081 0.376-0.127 0.584-0.127 0.78 0 1.412 0.632 1.412 1.412 0 0.571-0.34 1.063-0.828 1.285 0 0 0 0 0 0s-5.177 2.353-5.177 2.353c0 0 0 0 0 0-0.178 0.081-0.376 0.127-0.584 0.127-0.78 0-1.412-0.632-1.412-1.412 0-0.571 0.34-1.063 0.828-1.285zM7.529 8.47c0.208 0 0.406 0.045 0.584 0.127 0 0 0 0 0 0s5.176 2.353 5.176 2.353c0 0 0 0 0 0 0.488 0.222 0.828 0.714 0.828 1.285 0 0.78-0.632 1.412-1.412 1.412-0.208 0-0.406-0.045-0.584-0.127 0 0 0 0 0 0s-5.176-2.353-5.176-2.353c0 0 0 0 0 0-0.488-0.222-0.828-0.714-0.828-1.285 0-0.78 0.632-1.412 1.412-1.412zM7.529 13.647c0.208 0 0.406 0.046 0.584 0.126 0 0 0 0 0 0s5.176 2.353 5.176 2.353c0 0 0 0 0 0 0.488 0.222 0.828 0.714 0.828 1.285 0 0.779-0.632 1.411-1.412 1.411-0.208 0-0.406-0.046-0.584-0.127 0 0 0 0.001 0 0.001s-5.176-2.353-5.176-2.353c0 0 0 0 0 0-0.488-0.222-0.828-0.713-0.828-1.285 0-0.78 0.632-1.411 1.412-1.411zM7.529 18.823c0.208 0 0.406 0.046 0.584 0.127 0 0 0 0 0 0s5.176 2.353 5.176 2.353c0 0 0 0 0 0 0.488 0.222 0.828 0.714 0.828 1.285 0 0.78-0.632 1.412-1.412 1.412-0.208 0-0.406-0.046-0.584-0.127 0 0 0 0 0 0s-5.176-2.353-5.176-2.353c0 0 0 0 0 0-0.488-0.222-0.828-0.714-0.828-1.285 0-0.78 0.632-1.412 1.412-1.412z"></path>
</symbol>

<symbol id="icon-cart" viewBox="0 0 38 32">
<path fill="#fff" style="fill: var(--color2, #fff)" d="M35.249 8.777c0 0 0.002 0.001 0.002 0.001s-4.659 10.352-4.659 10.352c0 0-0 0-0 0-0.23 0.51-0.727 0.874-1.313 0.912 0 0 0 0 0 0s-13.417 0.894-13.417 0.894c0 0 0.775 2.215 0.775 2.215s14.609 0 14.609 0c1.715 0 3.106 1.391 3.106 3.107s-1.391 3.105-3.106 3.105c-1.715 0-3.106-1.39-3.106-3.105 0 0-14.494 0-14.494 0 0 1.715-1.391 3.105-3.106 3.105s-3.106-1.39-3.106-3.105c0-1.715 1.391-3.107 3.106-3.107 0 0 2.806 0 2.806 0s-5.979-17.082-5.979-17.082c0 0-3.557 0-3.557 0-0.858 0-1.553-0.696-1.553-1.553s0.695-1.553 1.553-1.553c0 0 4.659 0 4.659 0 0.678 0 1.248 0.436 1.46 1.042 0 0 0.006-0.002 0.006-0.002s0.904 2.584 0.904 2.584c0 0 22.995 0 22.995 0 0.858 0 1.553 0.695 1.553 1.553 0 0.227-0.051 0.441-0.139 0.636zM11.928 9.694c0 0 2.871 8.202 2.871 8.202s13.345-0.89 13.345-0.89c0 0 3.291-7.312 3.291-7.312s-19.506 0-19.506 0z"></path>
</symbol>

<symbol id="icon-COMPUTER-_-OK" viewBox="0 0 35 32">
<path fill="#95e1d3" style="fill: var(--color1, #95e1d3)" d="M32 25.806c0 0-7.742 0-7.742 0s-2.065 0-2.065 0c0 0 0 2.581 0 2.581s2.065 2.065 2.065 2.065c0 0 0 0.516 0 0.516s-13.419 0-13.419 0c0 0 0-0.516 0-0.516s2.065-2.065 2.065-2.065c0 0 0-2.581 0-2.581s-2.064 0-2.064 0c0 0-7.742 0-7.742 0-0.855 0-1.548-0.693-1.548-1.549 0 0 0-20.645 0-20.645 0-0.855 0.693-1.548 1.548-1.548 0 0 28.903 0 28.903 0 0.855 0 1.548 0.693 1.548 1.548 0 0 0 20.645 0 20.645 0 0.855-0.693 1.549-1.548 1.549zM31.484 4.129c0 0-27.871 0-27.871 0s0 17.548 0 17.548c0 0 27.871 0 27.871 0s0-17.548 0-17.548zM14.452 11.354c0.428 0 0.815 0.174 1.095 0.453 0 0 0 0 0 0s0.97 0.97 0.97 0.97c0 0 3.034-3.034 3.034-3.034s0 0 0 0c0.28-0.281 0.667-0.453 1.095-0.453 0.855 0 1.548 0.693 1.548 1.548 0 0.428-0.173 0.815-0.453 1.095 0 0 0 0 0 0s-4.129 4.129-4.129 4.129c0 0 0 0 0 0-0.28 0.28-0.667 0.454-1.095 0.454s-0.815-0.174-1.095-0.454c0 0 0 0 0 0s-2.064-2.065-2.064-2.065c0 0 0 0 0 0-0.28-0.28-0.454-0.668-0.454-1.094 0-0.855 0.693-1.549 1.548-1.549z"></path>
</symbol>

<symbol id="icon-facebook" viewBox="0 0 16 32">
<path d="M11.053 0.182c0 1.349 0 3.768 0 3.768s-2.777-0.277-3.472 0.787c-0.38 0.582-0.154 2.286-0.188 3.509 1.212 0 2.471 0 3.684 0-0.311 1.43-0.534 2.399-0.763 3.637-1.049 0-2.94 0-2.94 0v11.707c0 0-3.472 0-5.104 0 0.001-3.609-0.001-7.819 0-11.661-0.793 0-1.379 0-2.171 0 0-1.35 0-2.332 0-3.683 0.769 0 1.378 0 2.148 0 0.11-2.694 0.151-5.361 1.489-6.72 1.503-1.528 2.938-1.344 7.319-1.344z"></path>
</symbol>

<symbol id="icon-HOME" viewBox="0 0 34 32">
<path fill="#95e1d3" style="fill: var(--color1, #95e1d3)" d="M32.97 16.969c0 0.803-0.651 1.454-1.455 1.454-0.383 0-0.729-0.151-0.989-0.393 0 0-0.004 0.003-0.004 0.003s-13.031-13.031-13.031-13.031c0 0 0-0.001 0-0.001s-0.037-0.035-0.037-0.035c0 0 0-0.001 0-0.001s-13.039 13.039-13.039 13.039c0 0-0.001-0.001-0.001-0.001-0.263 0.259-0.623 0.418-1.021 0.418-0.803 0-1.455-0.651-1.455-1.454 0-0.412 0.172-0.784 0.447-1.048 0 0 14.020-14.020 14.020-14.020 0.265-0.275 0.636-0.447 1.048-0.447 0 0 0 0 0 0s0 0 0 0 0 0 0.001 0c0.026 0 0.051 0.001 0.077 0.002 0.004 0 0.008 0.001 0.012 0.001 0.022 0.002 0.044 0.003 0.065 0.006 0.001 0 0.003 0 0.004 0.001 0.356 0.039 0.673 0.206 0.905 0.454 0 0 0.001-0.001 0.001-0.001s5.723 5.723 5.723 5.723c0 0 0-1.337 0-1.337 0-0.803 0.651-1.455 1.455-1.455s1.455 0.651 1.455 1.455c0 0 0 4.246 0 4.246s5.428 5.428 5.428 5.428c0 0-0.003 0.004-0.003 0.004 0.242 0.26 0.393 0.606 0.393 0.989zM30.061 19.394c0 0 0 4.364 0 4.364s0 1.939 0 1.939c0 0 0 3.879 0 3.879 0 0.803-0.651 1.455-1.455 1.455 0 0-2.909 0-2.909 0s0-11.637 0-11.637c0 0-5.818 0-5.818 0s0 11.637 0 11.637c0 0-13.576 0-13.576 0-0.803 0-1.455-0.651-1.455-1.455 0 0 0-3.879 0-3.879s0-1.939 0-1.939c0 0 0-4.364 0-4.364s12.606-12.606 12.606-12.606c0 0 12.606 12.606 12.606 12.606zM15.030 19.394c0 0-5.818 0-5.818 0s0 5.819 0 5.819c0 0 5.818 0 5.818 0s0-5.819 0-5.819z"></path>
</symbol>

<symbol id="icon-IMAGE" viewBox="0 0 34 32">
<path fill="#95e1d3" style="fill: var(--color1, #95e1d3)" d="M30.588 31.059c0 0-27.294 0-27.294 0-0.78 0-1.412-0.632-1.412-1.412 0 0 0-27.294 0-27.294 0-0.78 0.632-1.411 1.412-1.411 0 0 27.294 0 27.294 0 0.78 0 1.412 0.632 1.412 1.411 0 0 0 27.294 0 27.294 0 0.78-0.632 1.412-1.412 1.412zM29.177 3.765c0 0-24.471 0-24.471 0s0 24.47 0 24.47c0 0 24.471 0 24.471 0s0-24.47 0-24.47zM8 5.176c0 0 5.176 0 5.176 0s0 0 0 0c0.78 0 1.412 0.632 1.412 1.412s-0.632 1.411-1.412 1.411c0 0 0 0 0 0s-4.235 0-4.235 0c0 0 0 4.235 0 4.235s0 0 0 0c0 0.78-0.632 1.412-1.412 1.412s-1.412-0.632-1.412-1.412c0 0 0 0 0 0s0-5.176 0-5.176c0 0 0 0 0 0s0-1.883 0-1.883c0 0 1.882 0 1.882 0s0 0 0 0zM6.118 19.764c0 0 0 0 0 0 0-0.78 0.632-1.412 1.412-1.412s1.412 0.632 1.412 1.412c0 0 0 0 0 0s0 4.235 0 4.235c0 0 4.235 0 4.235 0s0 0.001 0 0.001c0.78 0 1.412 0.632 1.412 1.411s-0.632 1.412-1.412 1.412c0 0-0 0-0 0s-5.176 0-5.176 0c0 0 0 0 0 0s-1.882 0-1.882 0c0 0 0-1.883 0-1.883s0 0 0 0 0-5.176 0-5.176zM20.706 5.176c0 0 0 0 0 0s5.176 0 5.176 0c0 0 0 0 0 0s1.882 0 1.882 0c0 0 0 1.883 0 1.883s0 0 0 0 0 5.176 0 5.176c0 0 0 0 0 0 0 0.78-0.632 1.412-1.412 1.412s-1.412-0.632-1.412-1.412c0 0 0 0 0 0s0-4.235 0-4.235c0 0-4.235 0-4.235 0s0 0 0 0c-0.78 0-1.412-0.632-1.412-1.411s0.632-1.412 1.412-1.412zM20.706 24c0 0 0-0.001 0-0.001s4.235 0 4.235 0c0 0 0-4.235 0-4.235s0 0 0 0c0-0.78 0.632-1.412 1.412-1.412s1.412 0.632 1.412 1.412c0 0 0 0 0 0s0 5.176 0 5.176c0 0 0 0 0 0s0 1.883 0 1.883c0 0-1.882 0-1.882 0s0 0 0 0-5.176 0-5.176 0c0 0-0 0-0 0-0.78 0-1.412-0.632-1.412-1.412s0.632-1.411 1.412-1.411z"></path>
</symbol>

<symbol id="icon-instagram" viewBox="0 0 32 32">
<path d="M20.754 23.589h-17.554c-1.616 0-2.926-1.31-2.926-2.927v-17.553c0-1.616 1.31-2.927 2.926-2.927h17.554c1.616 0 2.926 1.31 2.926 2.927v17.553c0 1.616-1.31 2.927-2.926 2.927zM11.977 7.35c-1.825 0-3.393 1.081-4.112 2.633h-0.005c-0.007 0.016-0.013 0.034-0.020 0.050-0.043 0.096-0.080 0.195-0.117 0.293-0.017 0.048-0.037 0.095-0.052 0.143-0.034 0.102-0.061 0.206-0.087 0.311-0.013 0.048-0.027 0.097-0.038 0.146-0.024 0.111-0.040 0.223-0.056 0.336-0.006 0.046-0.016 0.091-0.021 0.137-0.016 0.159-0.027 0.321-0.027 0.486 0 2.504 2.031 4.534 4.535 4.534s4.535-2.030 4.535-4.534c0-0.165-0.010-0.326-0.026-0.486-0.006-0.047-0.015-0.091-0.021-0.137-0.016-0.113-0.032-0.226-0.056-0.336-0.011-0.049-0.026-0.098-0.038-0.146-0.026-0.105-0.053-0.208-0.087-0.311-0.016-0.048-0.035-0.094-0.052-0.143-0.037-0.099-0.074-0.197-0.117-0.293-0.007-0.016-0.013-0.034-0.020-0.050h-0.005c-0.72-1.552-2.288-2.633-4.112-2.633zM21.047 3.985c0-0.646-0.524-1.169-1.17-1.169h-2.341c-0.646 0-1.17 0.523-1.17 1.169v2.341c0 0.646 0.524 1.17 1.17 1.17h2.341c0.646 0 1.17-0.524 1.17-1.17v-2.341zM21.047 9.983h-2.158c0.166 0.606 0.256 1.244 0.256 1.903 0 3.959-3.209 7.167-7.168 7.167s-7.168-3.208-7.168-7.167c0-0.658 0.090-1.296 0.256-1.903h-2.158v9.801c0 0.647 0.524 1.171 1.17 1.171h15.799c0.646 0 1.17-0.524 1.17-1.171v-9.801z"></path>
</symbol>

<symbol id="icon-LINE-GRAPH" viewBox="0 0 32 32">
<path fill="#95e1d3" style="fill: var(--color1, #95e1d3)" d="M28.8 31.085c0 0-26.514 0-26.514 0-0.757 0-1.371-0.614-1.371-1.372 0 0 0-26.514 0-26.514 0-0.757 0.614-1.371 1.371-1.371 0 0 26.514 0 26.514 0 0.757 0 1.372 0.614 1.372 1.371 0 0 0 26.514 0 26.514 0 0.757-0.614 1.372-1.372 1.372zM27.429 4.571c0 0-23.771 0-23.771 0s0 23.772 0 23.772c0 0 23.771 0 23.771 0s0-23.772 0-23.772zM5.683 16.675c0 0-0.001-0.001-0.001-0.001s3.657-2.286 3.657-2.286c0 0 0.001 0.001 0.001 0.001 0.209-0.129 0.454-0.203 0.717-0.203 0.285 0 0.549 0.087 0.768 0.235 0 0 0.005-0.008 0.005-0.008s6.062 4.041 6.062 4.041c0 0 6.984-4.929 6.984-4.929 0.227-0.166 0.507-0.264 0.809-0.264 0.757 0 1.371 0.614 1.371 1.371 0 0.457-0.224 0.862-0.568 1.111 0 0 0 0.001 0 0.001s-7.771 5.486-7.771 5.486c0 0-0-0.001-0-0.001-0.226 0.164-0.503 0.26-0.803 0.26-0.293 0-0.565-0.092-0.788-0.249 0 0-6.086-4.057-6.086-4.057s-2.867 1.792-2.867 1.792c-0.22 0.151-0.487 0.24-0.774 0.24-0.757 0-1.371-0.614-1.371-1.372 0-0.494 0.262-0.928 0.654-1.169z"></path>
</symbol>

<symbol id="icon-pinterest" viewBox="0 0 26 32">
<path d="M8.275 15.409c-0.191 0.762-0.384 1.56-0.583 2.341-0.197 0.77-0.37 1.551-0.656 2.258-0.474 1.171-1.077 2.303-1.868 3.219-0.526 0.61-0.414 0.367-0.572 0.334-0.121-0.026-0.131-0.144-0.154-0.315-0.129-0.931-0.041-2.007 0.006-3.053 0.055-1.192 0.305-2.183 0.538-3.174 0.442-1.887 0.865-3.737 1.312-5.636 0.029-0.126 0.11-0.335 0.082-0.407-0.203-0.528-0.335-1.001-0.392-1.555-0.067-0.635-0.016-1.229 0.127-1.776 0.253-0.967 0.835-1.824 1.732-2.138 0.57-0.197 1.202-0.108 1.586 0.121 0.395 0.237 0.666 0.61 0.793 1.139 0.135 0.562 0.036 1.235-0.073 1.729-0.244 1.114-0.565 1.951-0.857 3.026-0.144 0.533-0.308 1.081-0.173 1.657 0.124 0.528 0.4 0.892 0.774 1.166 0.389 0.283 0.85 0.438 1.486 0.416 1.123-0.039 1.903-0.757 2.424-1.434 0.835-1.083 1.339-2.545 1.531-4.284 0.061-0.561 0.107-1.206 0.064-1.841-0.080-1.174-0.447-2.118-1.030-2.85-0.554-0.698-1.34-1.252-2.297-1.564-0.948-0.309-2.26-0.412-3.426-0.213-2.119 0.363-3.613 1.567-4.494 3.23-0.461 0.87-0.765 1.872-0.765 3.118 0 0.961 0.237 1.705 0.62 2.286 0.122 0.184 0.3 0.336 0.419 0.546 0.169 0.298-0.026 0.742-0.109 1.064-0.101 0.389-0.112 0.925-0.565 0.934-0.188 0.004-0.424-0.133-0.583-0.222-1.193-0.659-1.917-1.859-2.214-3.414-0.181-0.945-0.18-2.047 0-2.96 0.174-0.884 0.497-1.699 0.857-2.36 0.744-1.374 1.835-2.473 3.163-3.258 1.020-0.603 2.171-1.027 3.572-1.231 0.464-0.068 0.945-0.096 1.467-0.121 1.525-0.071 2.911 0.274 3.955 0.741 1.102 0.493 1.981 1.148 2.725 1.962 0.766 0.837 1.324 1.809 1.677 3.025 0.185 0.633 0.364 1.309 0.364 2.091 0 0.784-0.166 1.475-0.282 2.165-0.433 2.586-1.663 4.7-3.509 5.904-0.447 0.291-0.988 0.56-1.604 0.74-0.61 0.177-1.306 0.311-2.051 0.259-0.723-0.049-1.316-0.246-1.813-0.528-0.494-0.279-0.909-0.621-1.203-1.137z"></path>
</symbol>

<symbol id="icon-search" viewBox="0 0 32 32">
<path fill="#fff" style="fill: var(--color2, #fff)" d="M29.307 25.572c0.478 0.478 0.773 1.138 0.773 1.867 0 1.458-1.182 2.64-2.64 2.64-0.729 0-1.389-0.296-1.867-0.773 0 0 0 0 0 0s-7.737-7.737-7.737-7.737c-1.572 0.929-3.398 1.471-5.356 1.471-5.832 0-10.56-4.727-10.56-10.56s4.728-10.56 10.56-10.56 10.56 4.728 10.56 10.56c0 1.958-0.542 3.784-1.47 5.356 0 0 7.737 7.737 7.737 7.737s0 0 0 0zM12.48 4.559c-4.374 0-7.92 3.546-7.92 7.92s3.546 7.92 7.92 7.92c4.374 0 7.92-3.546 7.92-7.92s-3.546-7.92-7.92-7.92z"></path>
</symbol>

<symbol id="icon-twitter" viewBox="0 0 39 32">
<path d="M19.325 0.663c2.244-0.040 3.439 0.778 4.58 1.817 0.969-0.083 2.228-0.623 2.969-1.001 0.239-0.13 0.48-0.263 0.721-0.394-0.424 1.144-0.998 2.040-1.88 2.721-0.196 0.15-0.391 0.354-0.637 0.45 0 0.004 0 0.010 0 0.014 1.258-0.012 2.295-0.58 3.281-0.888 0 0.004 0 0.010 0 0.014-0.518 0.822-1.218 1.657-1.965 2.255-0.301 0.239-0.604 0.479-0.905 0.718 0.017 1.332-0.020 2.603-0.268 3.722-1.448 6.505-5.283 10.921-11.353 12.813-2.18 0.679-5.703 0.958-8.201 0.338-1.238-0.307-2.357-0.654-3.406-1.113-0.584-0.255-1.124-0.531-1.641-0.846-0.17-0.103-0.339-0.206-0.509-0.309 0.563 0.017 1.223 0.172 1.852 0.070 0.57-0.092 1.129-0.067 1.655-0.182 1.311-0.288 2.475-0.669 3.477-1.256 0.487-0.285 1.225-0.618 1.57-1.028-0.651 0.011-1.241-0.14-1.725-0.31-1.875-0.662-2.966-1.879-3.677-3.708 0.568 0.063 2.205 0.211 2.588-0.113-0.715-0.040-1.402-0.454-1.895-0.761-1.508-0.943-2.738-2.526-2.729-4.961 0.199 0.094 0.396 0.188 0.594 0.281 0.38 0.16 0.765 0.245 1.216 0.339 0.191 0.040 0.573 0.151 0.792 0.070-0.010 0-0.019 0-0.029 0-0.291-0.339-0.767-0.565-1.060-0.93-0.968-1.202-1.874-3.052-1.301-5.257 0.146-0.559 0.376-1.053 0.622-1.508 0.010 0.004 0.019 0.009 0.029 0.013 0.113 0.236 0.364 0.409 0.523 0.607 0.494 0.612 1.103 1.163 1.725 1.649 2.116 1.655 4.022 2.673 7.083 3.425 0.777 0.192 1.674 0.338 2.602 0.339-0.26-0.758-0.177-1.986 0.028-2.72 0.516-1.847 1.636-3.177 3.281-3.891 0.393-0.17 0.829-0.295 1.287-0.395 0.236-0.028 0.471-0.056 0.707-0.084z"></path>
</symbol>
</defs>
</svg>
