<svg aria-hidden="true" style="position:absolute;width:0;height:0" xmlns="http://www.w3.org/2000/svg" overflow="hidden"><defs><symbol id="icon-glass" viewBox="0 0 32 32"><path d="M23.089 19.977a2.2 2.2 0 1 1-3.112 3.111l-6.448-6.447a8.748 8.748 0 0 1-4.463 1.225 8.8 8.8 0 1 1 8.8-8.8 8.751 8.751 0 0 1-1.225 4.463l6.448 6.448zM9.067 2.465a6.601 6.601 0 1 0 .002 13.202 6.601 6.601 0 0 0-.002-13.202z"/></symbol><symbol id="icon-shopping" viewBox="0 0 38 32"><path d="M28.362 5.861h.002l-3.96 8.8a1.322 1.322 0 0 1-1.115.776l-11.405.76.659 1.882h12.418a2.64 2.64 0 1 1-2.64 2.642h-12.32a2.64 2.64 0 1 1-2.64-2.642h2.386L4.665 3.561H1.641a1.32 1.32 0 0 1 0-2.64h3.96c.576 0 1.061.371 1.242.885l.005-.002.768 2.197h19.546a1.319 1.319 0 0 1 1.202 1.861zM8.539 6.64l2.44 6.971 11.342-.757 2.797-6.214H8.539z"/></symbol></defs></svg>