<svg aria-hidden="true" style="position:absolute;width:0;height:0" xmlns="http://www.w3.org/2000/svg" overflow="hidden"><defs><symbol id="icon-ALARM" viewBox="0 0 32 32"><path fill="var(--color1, #95e1d3)" d="M29.873 10.826a14.794 14.794 0 0 0-7.757-7.758 5.506 5.506 0 0 1 3.415-1.186 5.53 5.53 0 0 1 5.529 5.529 5.5 5.5 0 0 1-1.186 3.415zm-.226 6.115c0 3.626-1.423 6.911-3.729 9.355l1.909 1.909a1.396 1.396 0 1 1-1.974 1.974l-2.05-2.05a13.571 13.571 0 0 1-7.802 2.459c-2.898 0-5.579-.909-7.789-2.45l-2.036 2.036a1.41 1.41 0 0 1-2.41-.998c0-.389.158-.743.413-.998l1.894-1.893a13.585 13.585 0 0 1-3.719-9.344c0-7.537 6.11-13.647 13.647-13.647s13.647 6.11 13.647 13.647zM16 6.117c-5.978 0-10.824 4.846-10.824 10.824S10.022 27.765 16 27.765s10.823-4.846 10.823-10.824S21.977 6.117 16 6.117zm5.647 12.236H16c-.78 0-1.412-.632-1.412-1.412v-7.53a1.412 1.412 0 0 1 2.824 0v6.118h4.235a1.412 1.412 0 1 1 0 2.824zM2.153 11.017A5.613 5.613 0 0 1 .941 7.529a5.647 5.647 0 0 1 5.647-5.647 5.62 5.62 0 0 1 3.488 1.211 15.112 15.112 0 0 0-7.923 7.923z"/></symbol><symbol id="icon-BOOK-2" viewBox="0 0 33 32"><path fill="var(--color1, #95e1d3)" d="M31.12 25.308L17.5 30.944a1.404 1.404 0 0 1-1.118 0l-13.62-5.636A1.412 1.412 0 0 1 1.882 24V2.353a1.41 1.41 0 0 1 1.952-1.304l.002.001.013.005 13.092 5.417 13.092-5.417.013-.005.002-.001A1.412 1.412 0 0 1 32 2.353V24c0 .591-.364 1.098-.88 1.308zM15.529 8.944L4.705 4.465v18.591l10.824 4.479V8.944zm13.647-4.479L18.352 8.944v18.591l10.824-4.479V4.465zm-8.584 6.485l5.177-2.353a1.412 1.412 0 0 1 1.168 2.57L21.76 13.52a1.412 1.412 0 0 1-1.168-2.57zm0 5.177l5.177-2.353a1.412 1.412 0 0 1 1.168 2.57l-5.177 2.353v-.001a1.412 1.412 0 0 1-1.168-2.569zm0 5.176l5.177-2.353a1.412 1.412 0 0 1 1.168 2.57l-5.177 2.353a1.412 1.412 0 0 1-1.168-2.57zM7.529 8.47c.208 0 .406.045.584.127l5.176 2.353a1.412 1.412 0 1 1-1.168 2.57l-5.176-2.353a1.412 1.412 0 0 1 .584-2.697zm0 5.177c.208 0 .406.046.584.126l5.176 2.353a1.412 1.412 0 1 1-1.168 2.569v.001l-5.176-2.353a1.41 1.41 0 0 1 .584-2.696zm0 5.176c.208 0 .406.046.584.127l5.176 2.353a1.412 1.412 0 1 1-1.168 2.57L6.945 21.52a1.412 1.412 0 0 1 .584-2.697z"/></symbol><symbol id="icon-cart" viewBox="0 0 38 32"><path fill="var(--color2, #fff)" d="M35.249 8.777l.002.001-4.659 10.352c-.23.51-.727.874-1.313.912s-13.417.894-13.417.894l.775 2.215h14.609a3.107 3.107 0 1 1-3.106 3.107H13.646a3.106 3.106 0 1 1-3.106-3.107h2.806L7.367 6.069H3.81a1.553 1.553 0 0 1 0-3.106h4.659c.678 0 1.248.436 1.46 1.042l.006-.002.904 2.584h22.995a1.553 1.553 0 0 1 1.414 2.189zm-23.321.917l2.871 8.202 13.345-.89 3.291-7.312H11.929z"/></symbol><symbol id="icon-COMPUTER-_-OK" viewBox="0 0 35 32"><path fill="var(--color1, #95e1d3)" d="M32 25.806h-9.807v2.581l2.065 2.065v.516H10.839v-.516l2.065-2.065v-2.581H3.098a1.548 1.548 0 0 1-1.548-1.549V3.612c0-.855.693-1.548 1.548-1.548h28.903c.855 0 1.548.693 1.548 1.548v20.645c0 .855-.693 1.549-1.548 1.549zm-.516-21.677H3.613v17.548h27.871V4.129zm-17.032 7.225c.428 0 .815.174 1.095.453l.97.97 3.034-3.034a1.548 1.548 0 1 1 2.19 2.19l-4.129 4.129a1.544 1.544 0 0 1-2.19 0l-2.064-2.065a1.549 1.549 0 0 1 1.094-2.643z"/></symbol><symbol id="icon-facebook" viewBox="0 0 16 32"><path d="M11.053.182V3.95s-2.777-.277-3.472.787c-.38.582-.154 2.286-.188 3.509h3.684c-.311 1.43-.534 2.399-.763 3.637h-2.94V23.59H2.27V11.929H.099V8.246h2.148c.11-2.694.151-5.361 1.489-6.72C5.239-.002 6.674.182 11.055.182z"/></symbol><symbol id="icon-HOME" viewBox="0 0 34 32"><path fill="var(--color1, #95e1d3)" d="M32.97 16.969c0 .803-.651 1.454-1.455 1.454-.383 0-.729-.151-.989-.393l-.004.003L17.491 5.002v-.001l-.037-.035v-.001L4.415 18.004l-.001-.001a1.455 1.455 0 1 1-2.029-2.084l14.02-14.02a1.45 1.45 0 0 1 1.048-.447h.001l.077.002.012.001c.022.002.044.003.065.006l.004.001c.356.039.673.206.905.454l.001-.001 5.723 5.723V6.301a1.455 1.455 0 0 1 2.91 0v4.246l5.428 5.428-.003.004c.242.26.393.606.393.989zm-2.909 2.425v10.182c0 .803-.651 1.455-1.455 1.455h-2.909V19.394h-5.818v11.637H6.303a1.455 1.455 0 0 1-1.455-1.455V19.394L17.454 6.788 30.06 19.394zm-15.031 0H9.212v5.819h5.818v-5.819z"/></symbol><symbol id="icon-IMAGE" viewBox="0 0 34 32"><path fill="var(--color1, #95e1d3)" d="M30.588 31.059H3.294c-.78 0-1.412-.632-1.412-1.412V2.353c0-.78.632-1.411 1.412-1.411h27.294c.78 0 1.412.632 1.412 1.411v27.294c0 .78-.632 1.412-1.412 1.412zM29.177 3.765H4.706v24.47h24.471V3.765zM8 5.176h5.176a1.412 1.412 0 1 1 0 2.823H8.941v4.235a1.412 1.412 0 1 1-2.824 0V5.175h1.882zM6.118 19.764a1.412 1.412 0 1 1 2.824 0v4.235h4.235V24a1.412 1.412 0 1 1 0 2.823H6.119v-7.059zM20.706 5.176h7.058v7.059a1.412 1.412 0 1 1-2.824 0V8h-4.235a1.412 1.412 0 1 1 0-2.823zm0 18.824v-.001h4.235v-4.235a1.412 1.412 0 1 1 2.824 0v7.059h-7.058a1.412 1.412 0 1 1 0-2.823z"/></symbol><symbol id="icon-instagram" viewBox="0 0 32 32"><path d="M20.754 23.589H3.2a2.926 2.926 0 0 1-2.926-2.927V3.109A2.927 2.927 0 0 1 3.2.182h17.554a2.926 2.926 0 0 1 2.926 2.927v17.553a2.927 2.927 0 0 1-2.926 2.927zM11.977 7.35a4.531 4.531 0 0 0-4.112 2.633H7.86l-.02.05c-.043.096-.08.195-.117.293-.017.048-.037.095-.052.143a4.085 4.085 0 0 0-.087.311c-.013.048-.027.097-.038.146-.024.111-.04.223-.056.336-.006.046-.016.091-.021.137a4.535 4.535 0 1 0 9.017 0c-.006-.047-.015-.091-.021-.137-.016-.113-.032-.226-.056-.336-.011-.049-.026-.098-.038-.146a4.219 4.219 0 0 0-.087-.311c-.016-.048-.035-.094-.052-.143a4.965 4.965 0 0 0-.117-.293l-.02-.05h-.005a4.533 4.533 0 0 0-4.112-2.633zm9.07-3.365a1.17 1.17 0 0 0-1.17-1.169h-2.341a1.17 1.17 0 0 0-1.17 1.169v2.341c0 .646.524 1.17 1.17 1.17h2.341a1.17 1.17 0 0 0 1.17-1.17V3.985zm0 5.998h-2.158a7.167 7.167 0 0 1-6.912 9.07 7.167 7.167 0 0 1-6.912-9.07H2.907v9.801a1.17 1.17 0 0 0 1.17 1.171h15.799a1.17 1.17 0 0 0 1.17-1.171V9.983z"/></symbol><symbol id="icon-LINE-GRAPH" viewBox="0 0 32 32"><path fill="var(--color1, #95e1d3)" d="M28.8 31.085H2.286a1.371 1.371 0 0 1-1.371-1.372V3.199c0-.757.614-1.371 1.371-1.371H28.8c.757 0 1.372.614 1.372 1.371v26.514c0 .757-.614 1.372-1.372 1.372zM27.429 4.571H3.658v23.772h23.771V4.571zM5.683 16.675l-.001-.001 3.657-2.286.001.001a1.367 1.367 0 0 1 1.485.032l.005-.008 6.062 4.041 6.984-4.929a1.371 1.371 0 0 1 1.612 2.218v.001l-7.771 5.486v-.001a1.365 1.365 0 0 1-1.591.011l-6.086-4.057-2.867 1.792a1.371 1.371 0 0 1-1.491-2.301z"/></symbol><symbol id="icon-pinterest" viewBox="0 0 26 32"><path d="M8.275 15.409c-.191.762-.384 1.56-.583 2.341-.197.77-.37 1.551-.656 2.258-.474 1.171-1.077 2.303-1.868 3.219-.526.61-.414.367-.572.334-.121-.026-.131-.144-.154-.315-.129-.931-.041-2.007.006-3.053.055-1.192.305-2.183.538-3.174.442-1.887.865-3.737 1.312-5.636.029-.126.11-.335.082-.407a5.823 5.823 0 0 1-.392-1.555 4.934 4.934 0 0 1 .127-1.776c.253-.967.835-1.824 1.732-2.138.57-.197 1.202-.108 1.586.121.395.237.666.61.793 1.139.135.562.036 1.235-.073 1.729-.244 1.114-.565 1.951-.857 3.026-.144.533-.308 1.081-.173 1.657.124.528.4.892.774 1.166.389.283.85.438 1.486.416 1.123-.039 1.903-.757 2.424-1.434.835-1.083 1.339-2.545 1.531-4.284.061-.561.107-1.206.064-1.841-.08-1.174-.447-2.118-1.03-2.85-.554-.698-1.34-1.252-2.297-1.564-.948-.309-2.26-.412-3.426-.213-2.119.363-3.613 1.567-4.494 3.23a6.473 6.473 0 0 0-.765 3.118c0 .961.237 1.705.62 2.286.122.184.3.336.419.546.169.298-.026.742-.109 1.064-.101.389-.112.925-.565.934-.188.004-.424-.133-.583-.222-1.193-.659-1.917-1.859-2.214-3.414a8.157 8.157 0 0 1 0-2.96 8.443 8.443 0 0 1 4.02-5.618C5.998.936 7.149.512 8.55.308c.464-.068.945-.096 1.467-.121a8.816 8.816 0 0 1 3.955.741 8.086 8.086 0 0 1 2.725 1.962c.766.837 1.324 1.809 1.677 3.025.185.633.364 1.309.364 2.091 0 .784-.166 1.475-.282 2.165-.433 2.586-1.663 4.7-3.509 5.904-.447.291-.988.56-1.604.74-.61.177-1.306.311-2.051.259a4.182 4.182 0 0 1-1.813-.528c-.494-.279-.909-.621-1.203-1.137z"/></symbol><symbol id="icon-search" viewBox="0 0 32 32"><path fill="var(--color2, #fff)" d="M29.307 25.572a2.64 2.64 0 0 1-3.734 3.734l-7.737-7.737a10.488 10.488 0 0 1-5.356 1.471c-5.832 0-10.56-4.727-10.56-10.56S6.648 1.92 12.48 1.92s10.56 4.728 10.56 10.56c0 1.958-.542 3.784-1.47 5.356l7.737 7.737zM12.48 4.559a7.92 7.92 0 1 0 0 15.84 7.92 7.92 0 0 0 0-15.84z"/></symbol><symbol id="icon-twitter" viewBox="0 0 39 32"><path d="M19.325.663c2.244-.04 3.439.778 4.58 1.817.969-.083 2.228-.623 2.969-1.001l.721-.394c-.424 1.144-.998 2.04-1.88 2.721-.196.15-.391.354-.637.45v.014c1.258-.012 2.295-.58 3.281-.888v.014c-.518.822-1.218 1.657-1.965 2.255l-.905.718c.017 1.332-.02 2.603-.268 3.722-1.448 6.505-5.283 10.921-11.353 12.813-2.18.679-5.703.958-8.201.338-1.238-.307-2.357-.654-3.406-1.113a13.535 13.535 0 0 1-1.641-.846l-.509-.309c.563.017 1.223.172 1.852.07.57-.092 1.129-.067 1.655-.182 1.311-.288 2.475-.669 3.477-1.256.487-.285 1.225-.618 1.57-1.028-.651.011-1.241-.14-1.725-.31-1.875-.662-2.966-1.879-3.677-3.708.568.063 2.205.211 2.588-.113-.715-.04-1.402-.454-1.895-.761-1.508-.943-2.738-2.526-2.729-4.961l.594.281c.38.16.765.245 1.216.339.191.04.573.151.792.07H3.8c-.291-.339-.767-.565-1.06-.93C1.772 7.283.866 5.433 1.439 3.228a6.734 6.734 0 0 1 .622-1.508l.029.013c.113.236.364.409.523.607.494.612 1.103 1.163 1.725 1.649 2.116 1.655 4.022 2.673 7.083 3.425.777.192 1.674.338 2.602.339-.26-.758-.177-1.986.028-2.72.516-1.847 1.636-3.177 3.281-3.891.393-.17.829-.295 1.287-.395l.707-.084z"/></symbol></defs></svg>